PathFileType	4	(x/y/z)	A01_PREF_T0015.trc
DataRate	CameraRate	NumFrames	NumMarkers	Units	OrigDataRate	OrigDataStartFrame	OrigNumFrames
240	240	9	48	mm	240	1	309
Frame#	Time	TOP_HEAD			R_AC			L_AC			R_ASIS			L_ASIS			R_PSIS			L_PSIS			SACRAL			L_IC			R_IC			L_GT			R_GT			R_LAT_KNEE			R_MED_KNEE			L_MED_KNEE			L_LAT_KNEE			R_TOE			L_TOE			R_1ST_MET			L_1ST_MET			L_5TH_MET			R_5TH_MET			R_LAT_ANK			R_MED_ANK			L_MED_ANK			L_LAT_ANK			L_HEEL_SUP			R_HEEL_SUP			L_HEEL_LAT			R_HEEL_LAT			L_HEEL_MED			R_HEEL_MED			R_LL_PROX_POST			R_LL_PROX_ANT			R_LL_DIST_ANT			R_LL_DIST_POST			R_THIGH_PROX_POST			R_THIGH_PROX_ANT			R_THIGH_DIST_ANT			R_THIGH_DIST_POST			L_PROS_PROX_ANT			L_PROS_PROX_POST			L_PROS_DIST_POST			L_PROS_DIST_ANT			L_THIGH_PROX_ANT			L_THIGH_PROX_POST			L_THIGH_DIST_POST			L_THIGH_DIST_ANT			
		X1	Y1	Z1	X2	Y2	Z2	X3	Y3	Z3	X4	Y4	Z4	X5	Y5	Z5	X6	Y6	Z6	X7	Y7	Z7	X8	Y8	Z8	X9	Y9	Z9	X10	Y10	Z10	X11	Y11	Z11	X12	Y12	Z12	X13	Y13	Z13	X14	Y14	Z14	X15	Y15	Z15	X16	Y16	Z16	X17	Y17	Z17	X18	Y18	Z18	X19	Y19	Z19	X20	Y20	Z20	X21	Y21	Z21	X22	Y22	Z22	X23	Y23	Z23	X24	Y24	Z24	X25	Y25	Z25	X26	Y26	Z26	X27	Y27	Z27	X28	Y28	Z28	X29	Y29	Z29	X30	Y30	Z30	X31	Y31	Z31	X32	Y32	Z32	X33	Y33	Z33	X34	Y34	Z34	X35	Y35	Z35	X36	Y36	Z36	X37	Y37	Z37	X38	Y38	Z38	X39	Y39	Z39	X40	Y40	Z40	X41	Y41	Z41	X42	Y42	Z42	X43	Y43	Z43	X44	Y44	Z44	X45	Y45	Z45	X46	Y46	Z46	X47	Y47	Z47	X48	Y48	Z48	

1	0	-661.87	1800.1	338.41	-841.15	1550.3	578.63	-906.08	1581.4	125.58	-876.84	1101.4	541.58	-852.88	1044.5	190.93	-1084.8	1114.3	399.73	-1066.5	1102.2	271.23	-1094.2	1079.9	333.56	-895.49	1175.3	146.76	-904.84	1202.5	549.29	-903.64	962.18	144.6	-959.36	998.71	574.94	-1062.1	602.27	509.12	NaN	NaN	NaN	-768.74	576.92	373.75	-800.46	582.07	211.97	-979.88	64.971	407.54	-429.97	187.31	259.98	-1060.7	53.607	362.81	-494.02	129.37	313.56	-516.3	111.92	185.75	-1088.7	44.426	496.5	-1184.1	145.23	475.61	-1171.2	153.78	373.6	-643.54	156.23	298.44	-667.62	140.26	231.18	-725.5	56.056	268.71	-1287.2	136	417.21	-703.82	33.44	236.11	-1287.5	110.8	450.34	-694.39	35.564	301.03	-1281	107.81	389.01	-1192	448.76	501.98	-1126.3	426.72	525.47	-1135.8	352.72	507.72	-1188.7	364.51	492.66	-1029.5	875.62	549.74	-957.67	878.62	560.84	-974.1	788.8	551.34	-1041.6	786.94	538.58	-717.77	520.09	225.87	-767.67	498.92	214.17	-749.53	438.34	220.12	-704.21	465.04	231.92	-802.68	838.81	194.01	-866.78	824.14	163.08	-838.06	755.35	180.9	-781.67	769.36	209.34
2	0.0041802	-657.18	1799.1	337.72	-836.5	1549.4	578.17	-901.33	1580.1	125.07	-872.18	1100.7	541.4	-847.96	1043.4	190.83	-1080.2	1113.4	399.16	-1061.7	1101.1	270.72	-1089.5	1078.9	333.03	-890.65	1174.4	146.56	-900.42	1201.7	549.03	-898.59	961.04	144.52	-955.19	998.15	574.79	-1059.4	602.12	509.01	NaN	NaN	NaN	-764.2	575.87	374.29	-795.13	580.71	212.59	-979.85	64.974	407.53	-422.65	188.81	261.07	-1060.6	53.537	362.73	-486.26	130.52	314.68	-508.3	112.9	186.58	-1088.6	44.434	496.46	-1183.6	145.75	475.5	-1170.5	154.14	373.5	-635.98	156.12	299.02	-659.83	140.09	231.68	-717.3	55.539	269.07	-1286.9	136.89	417.04	-695.36	33.113	236.47	-1287.1	111.65	450.23	-686.06	35.181	301.41	-1280.6	108.62	388.9	-1190.1	449.3	501.78	-1124.5	426.95	525.34	-1134.3	352.97	507.6	-1187.2	365.09	492.49	-1025.7	875.36	549.58	-953.9	878.13	560.76	-970.62	788.36	551.21	-1038.2	786.76	538.42	-712.41	519.51	226.63	-762.21	498.05	214.81	-743.71	437.61	220.73	-698.58	464.58	232.66	-797.77	837.72	194.38	-861.72	823.04	163.24	-833.04	754.29	181.22	-776.73	768.27	209.77
3	0.0083604	-652.28	1798.1	336.99	-831.65	1548.5	577.69	-896.39	1578.9	124.53	-867.34	1099.9	541.21	-842.84	1042.3	190.74	-1075.4	1112.4	398.57	-1056.8	1100	270.2	-1084.6	1077.9	332.49	-885.59	1173.3	146.35	-895.81	1200.9	548.78	-893.31	959.85	144.44	-950.84	997.55	574.65	-1056.5	601.97	508.9	NaN	NaN	NaN	-759.44	574.78	374.84	-789.55	579.32	213.22	-979.81	64.977	407.52	-415.12	190.22	262.19	-1060.5	53.464	362.66	-478.29	131.58	315.83	-500.1	113.83	187.45	-1088.4	44.445	496.42	-1183.1	146.3	475.39	-1169.9	154.51	373.42	-628.23	155.96	299.63	-651.84	139.88	232.22	-708.92	55.015	269.46	-1286.5	137.84	416.86	-686.72	32.78	236.87	-1286.7	112.54	450.13	-677.55	34.786	301.83	-1280.3	109.46	388.79	-1188	449.85	501.57	-1122.6	427.18	525.21	-1132.8	353.24	507.48	-1185.5	365.68	492.32	-1021.7	875.08	549.4	-949.96	877.62	560.68	-966.99	787.89	551.09	-1034.5	786.57	538.24	-706.83	518.89	227.4	-756.53	497.15	215.46	-737.66	436.84	221.36	-692.74	464.08	233.41	-792.64	836.59	194.76	-856.44	821.9	163.41	-827.78	753.19	181.55	-771.57	767.15	210.22
4	0.012541	-647.22	1797	336.24	-826.62	1547.5	577.17	-891.26	1577.5	123.96	-862.36	1099	541.03	-837.53	1041.1	190.64	-1070.4	1111.4	397.96	-1051.6	1098.8	269.67	-1079.6	1076.8	331.93	-880.34	1172.2	146.13	-891.05	1200.1	548.52	-887.85	958.63	144.36	-946.32	996.93	574.5	-1053.6	601.8	508.79	NaN	NaN	NaN	-754.48	573.66	375.39	-783.75	577.89	213.87	-979.78	64.977	407.51	-407.45	191.5	263.34	-1060.4	53.39	362.6	-470.22	132.54	317	-491.8	114.67	188.34	-1088.2	44.458	496.38	-1182.6	146.85	475.29	-1169.2	154.91	373.33	-620.36	155.76	300.27	-643.75	139.61	232.79	-700.46	54.495	269.89	-1286.1	138.83	416.69	-678.02	32.445	237.31	-1286.2	113.46	450.03	-668.96	34.383	302.29	-1279.9	110.34	388.69	-1185.9	450.43	501.37	-1120.6	427.42	525.08	-1131.2	353.51	507.37	-1183.8	366.28	492.15	-1017.6	874.78	549.22	-945.87	877.08	560.59	-963.21	787.4	550.96	-1030.8	786.36	538.07	-701.07	518.23	228.17	-750.66	496.21	216.11	-731.45	436.04	222	-686.71	463.54	234.16	-787.32	835.43	195.16	-850.96	820.73	163.6	-822.33	752.06	181.89	-766.21	766	210.69
5	0.016721	-642.02	1795.8	335.47	-821.45	1546.6	576.63	-885.99	1576.1	123.36	-857.27	1098.2	540.85	-832.07	1039.9	190.54	-1065.2	1110.4	397.34	-1046.4	1097.6	269.12	-1074.4	1075.7	331.35	-874.94	1171.1	145.9	-886.16	1199.2	548.27	-882.23	957.36	144.28	-941.67	996.27	574.34	-1050.5	601.62	508.68	NaN	NaN	NaN	-749.33	572.54	375.94	-777.77	576.46	214.53	-979.74	64.975	407.5	-399.69	192.61	264.51	-1060.3	53.313	362.54	-462.11	133.35	318.17	-483.48	115.39	189.26	-1088.1	44.474	496.35	-1182	147.42	475.2	-1168.5	155.32	373.26	-612.45	155.49	300.93	-635.62	139.29	233.39	-692.01	53.989	270.37	-1285.7	139.87	416.52	-669.34	32.114	237.78	-1285.8	114.41	449.94	-660.4	33.976	302.79	-1279.4	111.25	388.59	-1183.6	451.01	501.17	-1118.6	427.67	524.97	-1129.5	353.78	507.26	-1182	366.9	491.98	-1013.4	874.46	549.03	-941.67	876.51	560.51	-959.33	786.88	550.84	-1026.9	786.12	537.88	-695.15	517.53	228.93	-744.64	495.25	216.76	-725.1	435.2	222.64	-680.55	462.95	234.92	-781.83	834.26	195.57	-845.32	819.54	163.8	-816.7	750.92	182.25	-760.68	764.84	211.17
6	0.020901	-636.72	1794.7	334.68	-816.15	1545.6	576.06	-880.6	1574.7	122.74	-852.1	1097.3	540.67	-826.5	1038.7	190.45	-1060	1109.4	396.72	-1041	1096.4	268.57	-1069	1074.5	330.77	-869.41	1169.9	145.66	-881.17	1198.3	548.02	-876.48	956.08	144.21	-936.91	995.6	574.18	-1047.3	601.43	508.58	NaN	NaN	NaN	-744.02	571.42	376.48	-771.62	575.03	215.2	-979.7	64.971	407.5	-391.93	193.5	265.67	-1060.2	53.236	362.48	-454.05	133.98	319.33	-475.22	115.96	190.19	-1087.9	44.493	496.32	-1181.4	148	475.12	-1167.7	155.76	373.2	-604.57	155.16	301.62	-627.54	138.9	234.01	-683.65	53.507	270.88	-1285.3	140.95	416.36	-660.79	31.792	238.3	-1285.3	115.39	449.86	-651.95	33.572	303.33	-1279	112.2	388.51	-1181.3	451.61	500.98	-1116.4	427.91	524.86	-1127.7	354.07	507.16	-1180.2	367.52	491.83	-1009	874.13	548.83	-937.35	875.91	560.44	-955.34	786.35	550.73	-1022.9	785.87	537.7	-689.12	516.8	229.69	-738.52	494.28	217.41	-718.66	434.33	223.29	-674.29	462.32	235.67	-776.21	833.08	196	-839.53	818.34	164.01	-810.94	749.76	182.62	-755.01	763.68	211.66
7	0.025081	-631.32	1793.5	333.88	-810.75	1544.5	575.47	-875.1	1573.2	122.1	-846.85	1096.3	540.49	-820.82	1037.5	190.35	-1054.6	1108.4	396.08	-1035.5	1095.1	268.01	-1063.6	1073.4	330.18	-863.78	1168.6	145.4	-876.08	1197.3	547.78	-870.62	954.77	144.13	-932.05	994.9	574.02	-1044	601.23	508.5	NaN	NaN	NaN	-738.57	570.31	377.01	-765.33	573.62	215.87	-979.67	64.963	407.5	-384.21	194.13	266.84	-1060.1	53.158	362.43	-446.09	134.42	320.48	-467.09	116.36	191.13	-1087.7	44.514	496.3	-1180.8	148.58	475.05	-1167	156.21	373.15	-596.79	154.76	302.32	-619.58	138.44	234.65	-675.46	53.06	271.43	-1284.9	142.06	416.22	-652.43	31.487	238.85	-1284.8	116.39	449.79	-643.69	33.177	303.9	-1278.5	113.17	388.43	-1178.9	452.21	500.81	-1114.3	428.15	524.77	-1125.9	354.35	507.08	-1178.3	368.14	491.69	-1004.6	873.78	548.62	-932.95	875.29	560.36	-951.26	785.79	550.63	-1018.8	785.59	537.51	-683	516.03	230.42	-732.3	493.29	218.04	-712.17	433.44	223.92	-667.96	461.65	236.41	-770.47	831.9	196.43	-833.64	817.14	164.25	-805.06	748.59	182.99	-749.22	762.51	212.15
8	0.029261	-625.85	1792.4	333.06	-805.27	1543.5	574.85	-869.53	1571.7	121.43	-841.56	1095.4	540.32	-815.06	1036.3	190.25	-1049.1	1107.3	395.45	-1029.9	1093.9	267.45	-1058.1	1072.2	329.59	-858.05	1167.3	145.13	-870.92	1196.4	547.54	-864.69	953.45	144.07	-927.11	994.17	573.86	-1040.7	601.02	508.42	NaN	NaN	NaN	-733	569.21	377.52	-758.93	572.24	216.54	-979.63	64.953	407.5	-376.59	194.48	267.99	-1060	53.08	362.39	-438.3	134.62	321.61	-459.16	116.58	192.07	-1087.5	44.537	496.28	-1180.1	149.17	475	-1166.2	156.68	373.11	-589.17	154.29	303.04	-611.79	137.91	235.31	-667.51	52.66	272.01	-1284.5	143.2	416.09	-644.36	31.206	239.43	-1284.3	117.42	449.73	-635.69	32.798	304.51	-1278	114.18	388.37	-1176.5	452.81	500.64	-1112	428.38	524.69	-1124.1	354.63	507	-1176.3	368.76	491.56	-1000.1	873.41	548.41	-928.48	874.65	560.29	-947.12	785.22	550.53	-1014.7	785.3	537.32	-676.81	515.23	231.14	-726.04	492.29	218.66	-705.66	432.53	224.55	-661.59	460.93	237.12	-764.64	830.72	196.86	-827.66	815.93	164.49	-799.08	747.43	183.36	-743.33	761.35	212.64
9	0.033442	-620.34	1791.2	332.24	-799.73	1542.4	574.21	-863.89	1570.1	120.73	-836.23	1094.4	540.16	-809.24	1035	190.16	-1043.6	1106.2	394.82	-1024.3	1092.7	266.89	-1052.5	1071	329	-852.25	1166	144.86	-865.7	1195.4	547.31	-858.68	952.12	144.01	-922.1	993.43	573.7	-1037.2	600.79	508.36	NaN	NaN	NaN	-727.31	568.15	378.01	-752.43	570.91	217.2	-979.6	64.94	407.5	-369.11	194.51	269.13	-1059.9	53.002	362.35	-430.74	134.58	322.71	-451.48	116.58	193.02	-1087.4	44.561	496.27	-1179.5	149.77	474.96	-1165.4	157.17	373.1	-581.75	153.74	303.77	-604.23	137.31	235.98	-659.87	52.319	272.63	-1284.1	144.37	415.98	-636.62	30.957	240.05	-1283.8	118.46	449.68	-628.02	32.443	305.14	-1277.5	115.21	388.33	-1173.9	453.42	500.5	-1109.7	428.61	524.63	-1122.2	354.92	506.95	-1174.3	369.39	491.45	-995.54	873.02	548.19	-923.94	874	560.23	-942.91	784.63	550.45	-1010.5	784.98	537.13	-670.58	514.41	231.82	-719.74	491.31	219.25	-699.16	431.61	225.16	-655.21	460.17	237.81	-758.73	829.55	197.29	-821.6	814.74	164.75	-793.03	746.27	183.74	-737.37	760.21	213.12
